#!OML:ASF I:\Actors\actors\Patient Classification 1\Patient 1\Session 1\Subject1.ASF
:FULLY-SPECIFIED
:DEGREES
310
root -0.500448 17.5324 7.42942 5.60534 -6.41437 -8.04282
lowerback 2.74398 0.939168 5.38989
upperback -6.08503 1.68471 0.965679
thorax -7.81261 0.5321 -2.15738
lowerneck -12.4426 -0.0333709 2.60017
upperneck 36.0527 -0.112249 -2.00359
head 14.4692 0.00640286 -1.31022
rclavicle -5.66536e-015 -1.59028e-014
rhumerus -5.01263 64.7115 -64.6303
rradius 102.238
rwrist 46.6674
rhand -19.3149 -30.5996
rfingers 7.12502
rthumb 7.00119 -420.464
lclavicle -5.66536e-015 -1.59028e-014
lhumerus -43.272 -32.0221 106.836
lradius 99.0887
lwrist 22.5783
lhand -21.9959 -6.33163
lfingers 7.12502
lthumb 4.41275 23.6024
rfemur -1.74375 23.2715 26.4143
rtibia 4.07785
rfoot -10.3271 -17.008
rtoes -0.949195
lfemur 10.1393 -37.8437 -17.5418
ltibia -4.07336
lfoot -21.7493 51.57
ltoes 14.9414
311
root -0.500908 17.5333 7.42378 5.5838 -6.37021 -7.97711
lowerback 2.81446 0.963014 5.384
upperback -6.05991 1.71559 0.894539
thorax -7.82215 0.545345 -2.23321
lowerneck -12.4358 -0.0910255 2.55776
upperneck 35.8787 -0.217174 -1.91855
head 14.3835 -0.0339171 -1.28098
rclavicle -1.23743e-014 1.43125e-014
rhumerus -5.30972 64.3962 -64.9832
rradius 102.391
rwrist 46.4367
rhand -18.4043 -30.2534
rfingers 7.12502
rthumb 7.88009 -420.087
lclavicle -1.23743e-014 1.43125e-014
lhumerus -43.2877 -32.0939 106.804
lradius 98.9576
lwrist 22.4729
lhand -22.0592 -6.60266
lfingers 7.12502
lthumb 4.35159 23.3326
rfemur -1.75368 23.2087 26.3328
rtibia 4.08095
rfoot -10.3037 -16.9765
rtoes -1.16144
lfemur 10.1277 -37.8853 -17.6298
ltibia -4.03671
lfoot -21.8452 51.5615
ltoes 15.0222
312
root -0.502692 17.5328 7.41655 5.59188 -6.31185 -7.95776
lowerback 2.85346 0.996833 5.45451
upperback -6.02092 1.76004 0.790316
thorax -7.79476 0.560775 -2.38692
lowerneck -12.5109 -0.141414 2.56248
upperneck 35.7542 -0.331004 -1.81978
head 14.3399 -0.0695058 -1.25733
rclavicle -2.98177e-016 -7.15625e-015
rhumerus -6.00415 63.9214 -65.8393
rradius 102.594
rwrist 45.8632
rhand -17.6296 -30.1609
rfingers 7.12502
rthumb 8.6278 -419.965
lclavicle -2.98177e-016 -7.15625e-015
lhumerus -43.2531 -32.2608 106.711
lradius 98.8366
lwrist 22.4092
lhand -22.1298 -7.07263
lfingers 7.12502
lthumb 4.2834 22.864
rfemur -1.81181 23.1384 26.2964
rtibia 4.10337
rfoot -10.2679 -16.9664
rtoes -1.43757
lfemur 10.0277 -37.8791 -17.5848
ltibia -3.98573
lfoot -21.9697 51.4841
ltoes 15.3078
313
root -0.506147 17.532 7.40995 5.58432 -6.24964 -7.95353
lowerback 2.92131 1.01235 5.44981
upperback -5.99019 1.78112 0.74445
thorax -7.79805 0.57031 -2.4359
lowerneck -12.6341 -0.150371 2.55053
upperneck 35.6915 -0.357465 -1.77918
head 14.3384 -0.0770799 -1.2424
rclavicle -1.71949e-014 3.02153e-014
rhumerus -6.26991 63.8773 -66.2582
rradius 102.955
rwrist 44.5841
rhand -16.275 -30.4139
rfingers 7.12502
rthumb 9.93489 -420.159
lclavicle -1.71949e-014 3.02153e-014
lhumerus -43.2552 -32.3112 106.673
lradius 98.741
lwrist 22.1105
lhand -22.3956 -7.64454
lfingers 7.12502
lthumb 4.02672 22.2972
rfemur -1.82778 23.1035 26.2986
rtibia 4.09892
rfoot -10.2275 -16.9794
rtoes -1.53091
lfemur 9.95792 -37.8748 -17.5221
ltibia -3.9651
lfoot -21.9711 51.425
ltoes 15.4756
314
root -0.510447 17.5326 7.40619 5.54657 -6.17066 -7.96741
lowerback 3.01226 1.02999 5.42235
upperback -5.96416 1.80733 0.728617
thorax -7.82087 0.584146 -2.44168
lowerneck -12.7075 -0.173623 2.55443
upperneck 35.603 -0.387917 -1.79482
head 14.3132 -0.0919739 -1.25315
rclavicle 3.32964e-015 -9.54166e-015
rhumerus -5.23887 64.6704 -65.3761
rradius 103.537
rwrist 42.6168
rhand -14.51 -31.7289
rfingers 7.12502
rthumb 11.6373 -421.386
lclavicle 3.32964e-015 -9.54166e-015
lhumerus -43.2798 -32.3175 106.702
lradius 98.6527
lwrist 21.6415
lhand -22.5978 -8.13912
lfingers 7.12502
lthumb 3.83151 21.8062
rfemur -1.78675 23.0468 26.3435
rtibia 4.08018
rfoot -10.1958 -16.9898
rtoes -1.65543
lfemur 9.95897 -37.9025 -17.4834
ltibia -3.97089
lfoot -21.7356 51.4478
ltoes 15.1002
315
root -0.515006 17.5343 7.40295 5.54385 -6.07157 -8.04035
lowerback 3.07155 1.05666 5.45358
upperback -5.94964 1.8481 0.714292
thorax -7.83549 0.601691 -2.47934
lowerneck -12.7783 -0.218392 2.59484
upperneck 35.5501 -0.460438 -1.81278
head 14.3024 -0.120151 -1.27844
rclavicle -1.49089e-014 -8.74653e-015
rhumerus -6.55313 64.35 -66.9753
rradius 103.768
rwrist 41.8386
rhand -13.1227 -31.9234
rfingers 7.12502
rthumb 12.9749 -421.5
lclavicle -1.49089e-014 -8.74653e-015
lhumerus -43.2783 -32.3497 106.733
lradius 98.5551
lwrist 21.2282
lhand -22.3505 -8.49248
lfingers 7.12502
lthumb 4.07029 21.4484
rfemur -1.79599 22.98 26.4375
rtibia 4.09249
rfoot -10.2071 -17.0103
rtoes -1.49715
lfemur 9.87955 -37.8848 -17.3131
ltibia -3.96295
lfoot -21.5107 51.4132
ltoes 14.699
316
root -0.519597 17.5356 7.40028 5.56986 -5.99009 -8.09907
lowerback 3.07603 1.06712 5.43875
upperback -5.94093 1.86115 0.713586
thorax -7.82781 0.60942 -2.47304
lowerneck -12.8338 -0.234013 2.62027
upperneck 35.503 -0.493456 -1.80747
head 14.2923 -0.130263 -1.28544
rclavicle -7.20594e-015 0
rhumerus -9.79832 63.0939 -70.6464
rradius 103.608
rwrist 42.2274
rhand -12.4575 -31.9504
rfingers 7.12502
rthumb 13.6161 -421.485
lclavicle -7.20594e-015 0
lhumerus -43.279 -32.2759 106.731
lradius 98.4701
lwrist 20.9642
lhand -22.1982 -8.78986
lfingers 7.12502
lthumb 4.21735 21.1481
rfemur -1.8299 22.931 26.4993
rtibia 4.08925
rfoot -10.2222 -17.0182
rtoes -1.16665
lfemur 9.78586 -37.8597 -17.149
ltibia -3.97258
lfoot -21.3167 51.3519
ltoes 14.5291
317
root -0.524094 17.5354 7.39928 5.56717 -5.90997 -8.0932
lowerback 3.06229 1.06538 5.36169
upperback -5.91914 1.85089 0.701663
thorax -7.79792 0.60992 -2.44105
lowerneck -12.8004 -0.248242 2.62583
upperneck 35.3714 -0.520845 -1.78956
head 14.2234 -0.139747 -1.28085
rclavicle 2.18663e-015 -1.98785e-014
rhumerus -10.0748 63.8374 -71.2128
rradius 103.852
rwrist 41.6313
rhand -12.6629 -36.4103
rfingers 7.12502
rthumb 13.4182 -425.958
lclavicle 2.18663e-015 -1.98785e-014
lhumerus -43.3248 -32.1569 106.717
lradius 98.4421
lwrist 21.0082
lhand -22.6954 -9.0457
lfingers 7.12502
lthumb 3.73725 20.9013
rfemur -1.80269 22.8777 26.5081
rtibia 4.04616
rfoot -10.2269 -17.027
rtoes -0.998774
lfemur 9.85362 -38.0982 -17.2229
ltibia -3.98434
lfoot -21.4879 51.4738
ltoes 14.7801
318
root -0.527649 17.5345 7.3969 5.54759 -5.78624 -8.11292
lowerback 3.09975 1.05541 5.3332
upperback -5.90019 1.83681 0.691778
thorax -7.80064 0.604669 -2.43503
lowerneck -12.8131 -0.280496 2.62794
upperneck 35.2691 -0.572008 -1.78147
head 14.1778 -0.161095 -1.28418
rclavicle 3.97569e-015 -3.26007e-014
rhumerus -11.5198 63.4111 -73.0831
rradius 103.723
rwrist 40.6726
rhand -12.0915 -39.8112
rfingers 7.12502
rthumb 13.9688 -429.322
lclavicle 3.97569e-015 -3.26007e-014
lhumerus -43.3656 -32.0537 106.708
lradius 98.415
lwrist 21.2515
lhand -23.2987 -9.33491
lfingers 7.12502
lthumb 3.1546 20.6215
rfemur -1.76072 22.8142 26.558
rtibia 4.01412
rfoot -10.2292 -17.0784
rtoes -0.881723
lfemur 9.96089 -38.5062 -17.329
ltibia -3.95718
lfoot -21.9599 51.6872
ltoes 15.2057
